<svg width="185" height="70" viewBox="0 0 185 70" fill="none" xmlns="http://www.w3.org/2000/svg">
<rect width="70" height="70" rx="14" fill="#13544E"/>
<path d="M29.469 14.1452C29.469 11.1022 31.9437 8.63635 34.9976 8.63635C38.0515 8.63635 40.5261 11.1022 40.5261 14.1452C40.5261 17.1881 38.0515 19.654 34.9976 19.654C31.9437 19.654 29.469 17.1881 29.469 14.1452ZM20.2213 24.3472C22.3418 24.3472 24.0602 22.635 24.0602 20.522C24.0602 18.4091 22.3418 16.6969 20.2213 16.6969C18.1008 16.6969 16.3824 18.4091 16.3824 20.522C16.3824 22.635 18.1008 24.3472 20.2213 24.3472ZM27.8416 34.1438L35.0024 49.1488L42.3786 34.2488C45.0256 28.9021 41.1197 22.6397 35.1364 22.6397C29.201 22.6397 25.2903 28.802 27.8416 34.1438ZM26.3386 34.8545C24.8978 31.8306 25.1084 28.3346 26.8986 25.5062C27.0518 25.263 27.2193 25.0245 27.3916 24.7956C21.4897 27.8099 14.6784 26.0452 8.01538 20.522L30.8045 44.2267L26.3386 34.8545ZM49.7787 24.3472C51.8992 24.3472 53.6176 22.635 53.6176 20.522C53.6176 18.4091 51.8992 16.6969 49.7787 16.6969C47.6582 16.6969 45.9398 18.4091 45.9398 20.522C45.9398 22.635 47.6582 24.3472 49.7787 24.3472ZM43.6614 34.8545L39.1859 44.2267L61.975 20.522C55.3168 26.0452 48.5007 27.8099 42.6035 24.7956C42.7759 25.0245 42.9434 25.2582 43.0966 25.5062C44.8916 28.3346 45.1022 31.8306 43.6614 34.8545Z" fill="white"/>
<path d="M34.9977 50.761L5.45459 21.3186L34.9977 61.3637L64.5455 21.3186L34.9977 50.761Z" fill="#22BE0D"/>
<path d="M91.106 37L85.102 10.476H90.802L93.31 23.206L94.716 30.578H94.83L96.502 23.206L99.428 10.476H105.736L108.7 23.206L110.334 30.578H110.448L111.854 23.206L114.4 10.476H119.872L113.716 37H107.142L103.798 22.636L102.506 16.822H102.392L101.062 22.636L97.718 37H91.106ZM130.712 37.456C129.243 37.456 127.925 37.2153 126.76 36.734C125.62 36.2527 124.645 35.556 123.834 34.644C123.049 33.732 122.441 32.63 122.01 31.338C121.579 30.046 121.364 28.602 121.364 27.006C121.364 25.41 121.579 23.966 122.01 22.674C122.441 21.382 123.049 20.2927 123.834 19.406C124.645 18.494 125.62 17.7973 126.76 17.316C127.925 16.8347 129.243 16.594 130.712 16.594C132.181 16.594 133.486 16.8347 134.626 17.316C135.791 17.7973 136.767 18.494 137.552 19.406C138.363 20.2927 138.983 21.382 139.414 22.674C139.845 23.966 140.06 25.41 140.06 27.006C140.06 28.602 139.845 30.046 139.414 31.338C138.983 32.63 138.363 33.732 137.552 34.644C136.767 35.556 135.791 36.2527 134.626 36.734C133.486 37.2153 132.181 37.456 130.712 37.456ZM130.712 33.01C131.827 33.01 132.688 32.668 133.296 31.984C133.904 31.3 134.208 30.3247 134.208 29.058V24.992C134.208 23.7253 133.904 22.75 133.296 22.066C132.688 21.382 131.827 21.04 130.712 21.04C129.597 21.04 128.736 21.382 128.128 22.066C127.52 22.75 127.216 23.7253 127.216 24.992V29.058C127.216 30.3247 127.52 31.3 128.128 31.984C128.736 32.668 129.597 33.01 130.712 33.01ZM144.067 37V17.05H149.691V21.382H149.881C149.983 20.8247 150.16 20.2927 150.413 19.786C150.667 19.254 150.996 18.7853 151.401 18.38C151.832 17.9747 152.339 17.658 152.921 17.43C153.504 17.1767 154.188 17.05 154.973 17.05H155.961V22.294H154.555C152.909 22.294 151.68 22.5093 150.869 22.94C150.084 23.3707 149.691 24.1687 149.691 25.334V37H144.067ZM159.431 8.88H165.055V25.486H165.283L167.753 21.8L171.743 17.05H177.975L171.325 24.688L178.735 37H172.047L167.563 28.564L165.055 31.376V37H159.431V8.88Z" fill="#22BE0D"/>
<path d="M139.702 59V56.894L144.4 51.62H139.864V49.55H147.496V51.638L142.78 56.93H147.622V59H139.702ZM153.181 59.216C152.485 59.216 151.861 59.102 151.309 58.874C150.769 58.646 150.307 58.316 149.923 57.884C149.551 57.452 149.263 56.93 149.059 56.318C148.855 55.706 148.753 55.022 148.753 54.266C148.753 53.51 148.855 52.826 149.059 52.214C149.263 51.602 149.551 51.086 149.923 50.666C150.307 50.234 150.769 49.904 151.309 49.676C151.861 49.448 152.485 49.334 153.181 49.334C153.877 49.334 154.495 49.448 155.035 49.676C155.587 49.904 156.049 50.234 156.421 50.666C156.805 51.086 157.099 51.602 157.303 52.214C157.507 52.826 157.609 53.51 157.609 54.266C157.609 55.022 157.507 55.706 157.303 56.318C157.099 56.93 156.805 57.452 156.421 57.884C156.049 58.316 155.587 58.646 155.035 58.874C154.495 59.102 153.877 59.216 153.181 59.216ZM153.181 57.11C153.709 57.11 154.117 56.948 154.405 56.624C154.693 56.3 154.837 55.838 154.837 55.238V53.312C154.837 52.712 154.693 52.25 154.405 51.926C154.117 51.602 153.709 51.44 153.181 51.44C152.653 51.44 152.245 51.602 151.957 51.926C151.669 52.25 151.525 52.712 151.525 53.312V55.238C151.525 55.838 151.669 56.3 151.957 56.624C152.245 56.948 152.653 57.11 153.181 57.11ZM159.508 59V49.55H162.172V51.152H162.28C162.448 50.66 162.742 50.234 163.162 49.874C163.582 49.514 164.164 49.334 164.908 49.334C165.88 49.334 166.612 49.658 167.104 50.306C167.608 50.954 167.86 51.878 167.86 53.078V59H165.196V53.294C165.196 52.682 165.1 52.232 164.908 51.944C164.716 51.644 164.374 51.494 163.882 51.494C163.666 51.494 163.456 51.524 163.252 51.584C163.048 51.632 162.862 51.716 162.694 51.836C162.538 51.956 162.412 52.106 162.316 52.286C162.22 52.454 162.172 52.652 162.172 52.88V59H159.508ZM174.172 59.216C173.452 59.216 172.81 59.102 172.246 58.874C171.682 58.634 171.202 58.304 170.806 57.884C170.422 57.452 170.128 56.93 169.924 56.318C169.732 55.706 169.636 55.022 169.636 54.266C169.636 53.522 169.732 52.85 169.924 52.25C170.116 51.638 170.398 51.116 170.77 50.684C171.154 50.252 171.622 49.922 172.174 49.694C172.726 49.454 173.356 49.334 174.064 49.334C174.844 49.334 175.51 49.466 176.062 49.73C176.626 49.994 177.082 50.348 177.43 50.792C177.79 51.236 178.048 51.752 178.204 52.34C178.372 52.916 178.456 53.522 178.456 54.158V54.95H172.39V55.094C172.39 55.718 172.558 56.216 172.894 56.588C173.23 56.948 173.758 57.128 174.478 57.128C175.03 57.128 175.48 57.02 175.828 56.804C176.176 56.576 176.5 56.306 176.8 55.994L178.132 57.65C177.712 58.142 177.16 58.526 176.476 58.802C175.804 59.078 175.036 59.216 174.172 59.216ZM174.118 51.296C173.578 51.296 173.152 51.476 172.84 51.836C172.54 52.184 172.39 52.652 172.39 53.24V53.384H175.702V53.222C175.702 52.646 175.57 52.184 175.306 51.836C175.054 51.476 174.658 51.296 174.118 51.296Z" fill="#13544E"/>
</svg>
