<svg id="svg" version="1.1" xmlns="http://www.w3.org/2000/svg" xmlns:xlink="http://www.w3.org/1999/xlink" width="400" height="265.3637350705755" viewBox="0, 0, 400,265.3637350705755"><g id="svgg"><path id="path0" d="M34.636 0.150 C 17.029 2.434,3.992 16.925,0.483 38.111 C 0.036 40.815,-0.218 171.841,0.215 177.174 C 1.996 199.135,16.454 216.273,34.853 218.233 C 36.841 218.445,110.263 218.416,119.448 218.200 C 123.241 218.111,124.999 220.062,132.890 233.116 C 139.346 243.797,142.232 247.768,147.017 252.550 C 159.229 264.757,173.539 269.123,176.764 261.625 C 177.853 259.094,177.372 257.332,174.310 252.626 C 165.269 238.735,161.650 226.573,165.035 221.463 C 166.998 218.499,167.724 218.350,180.239 218.347 C 192.064 218.344,192.484 218.304,197.200 216.730 C 209.895 212.492,219.912 200.435,223.547 185.016 C 224.833 179.560,224.828 179.651,224.917 160.518 L 224.998 142.860 226.126 142.976 C 226.746 143.039,228.157 143.150,229.262 143.223 L 231.270 143.355 231.270 141.400 L 231.270 139.444 230.022 139.196 C 212.876 135.791,202.811 122.864,202.825 104.266 C 202.841 83.477,211.388 70.171,226.358 67.630 C 239.829 65.344,250.730 74.026,255.138 90.554 C 259.262 106.016,257.762 134.036,252.877 132.810 C 250.969 132.331,249.761 128.470,247.439 115.424 C 244.866 100.973,242.116 88.808,240.793 86.031 C 239.503 83.325,236.952 81.298,233.768 80.447 C 231.110 79.737,224.100 80.066,221.991 80.999 L 221.064 81.409 221.064 83.336 L 221.064 85.263 222.625 84.488 C 226.329 82.649,229.079 83.391,230.745 86.679 C 231.394 87.960,231.436 87.901,229.316 88.702 C 216.985 93.358,211.141 102.807,214.522 112.621 C 217.637 121.662,230.159 125.352,236.434 119.078 C 237.085 118.426,237.636 117.923,237.658 117.959 C 237.680 117.995,238.001 119.246,238.372 120.739 C 241.344 132.728,249.262 138.129,258.123 134.209 C 263.834 131.683,268.057 119.703,268.039 106.080 C 268.010 83.728,257.263 68.137,239.388 64.514 C 235.334 63.693,227.882 63.410,225.479 63.986 L 225.008 64.099 224.916 52.191 C 224.821 39.831,224.768 39.008,223.762 34.311 C 222.611 28.929,220.249 22.703,217.889 18.830 C 211.633 8.561,202.189 1.897,191.679 0.337 C 189.567 0.023,37.012 -0.159,34.636 0.150 M191.569 9.563 C 202.187 11.726,211.230 21.396,214.546 34.129 C 215.901 39.336,215.920 39.575,216.011 53.420 L 216.095 66.124 213.752 67.207 C 202.961 72.198,195.396 81.534,192.293 93.689 C 187.099 114.037,196.250 133.521,214.182 140.295 L 216.094 141.018 216.005 159.380 C 215.907 179.463,215.926 179.131,214.555 184.269 C 211.256 196.630,203.045 205.782,192.690 208.640 L 190.554 209.229 179.696 209.240 C 169.114 209.251,168.795 209.264,167.128 209.739 C 157.342 212.529,152.971 220.676,155.343 231.705 C 157.116 239.947,159.174 245.306,163.083 251.865 C 163.819 253.099,164.380 254.150,164.330 254.201 C 163.909 254.621,157.512 249.960,154.345 246.925 C 149.218 242.012,147.568 239.746,139.802 226.951 C 131.062 212.550,127.332 209.142,120.304 209.137 C 119.408 209.136,100.255 209.187,77.742 209.249 C 47.791 209.333,36.347 209.297,35.091 209.116 C 21.712 207.194,11.000 193.963,9.336 177.307 C 8.878 172.730,9.148 40.972,9.620 38.436 C 12.541 22.738,22.224 11.419,34.510 9.340 C 37.197 8.885,189.303 9.101,191.569 9.563 M170.901 39.398 C 160.525 41.579,153.996 51.923,152.536 68.499 L 152.384 70.223 153.879 68.980 C 154.702 68.296,158.611 65.077,162.567 61.827 L 169.760 55.917 170.002 54.218 C 171.097 46.522,176.299 47.287,184.574 56.359 C 185.550 57.430,186.416 58.331,186.497 58.360 C 186.578 58.390,187.567 55.866,188.694 52.752 L 190.743 47.089 190.330 46.292 C 187.704 41.228,178.214 37.861,170.901 39.398 M124.864 46.815 C 117.406 48.782,114.076 56.425,118.222 62.057 C 124.027 69.942,138.127 67.611,140.202 58.422 C 141.859 51.084,133.282 44.594,124.864 46.815 M161.097 69.733 L 152.488 76.904 147.580 76.881 C 144.880 76.869,142.671 76.898,142.671 76.947 C 142.671 76.995,142.231 78.960,141.694 81.313 C 141.156 83.665,140.717 85.681,140.717 85.792 C 140.717 85.911,143.119 85.993,146.580 85.993 L 152.443 85.993 152.443 118.567 L 152.443 151.140 161.129 151.140 L 169.815 151.140 169.815 118.567 L 169.815 85.993 176.547 85.993 C 180.250 85.993,183.279 85.938,183.279 85.871 C 183.279 85.803,183.719 83.806,184.256 81.433 C 184.794 79.060,185.233 77.063,185.233 76.996 C 185.233 76.928,181.766 76.873,177.527 76.873 L 169.821 76.873 169.764 69.717 L 169.707 62.561 161.097 69.733 M321.173 68.187 C 321.173 72.386,321.111 73.615,320.901 73.615 C 320.752 73.614,319.872 73.319,318.947 72.959 C 305.275 67.641,289.297 72.911,280.869 85.519 C 269.486 102.547,275.130 126.530,292.702 135.795 L 294.641 136.817 292.777 141.101 C 291.752 143.458,289.876 147.776,288.608 150.699 L 286.303 156.012 289.322 162.425 C 290.983 165.952,292.420 168.922,292.515 169.025 C 292.803 169.339,302.206 163.960,311.618 158.097 C 319.467 153.208,319.901 152.998,320.855 153.623 C 322.593 154.762,317.737 158.550,307.223 164.257 L 305.326 165.287 305.676 165.977 C 310.276 175.047,313.004 180.025,313.323 179.932 C 313.520 179.875,314.291 179.673,315.036 179.485 C 324.119 177.189,331.214 171.709,335.044 164.032 C 341.358 151.377,336.195 136.941,325.925 138.534 C 320.559 139.367,302.675 148.080,295.503 153.356 C 293.192 155.056,293.274 155.031,292.841 154.195 C 292.561 153.653,297.144 138.831,297.793 138.182 C 297.830 138.146,298.781 138.349,299.907 138.635 C 316.950 142.951,334.245 132.683,339.284 115.258 C 343.369 101.130,338.264 85.619,326.763 77.209 C 325.127 76.012,325.146 76.104,326.112 74.050 C 327.654 70.774,332.071 68.109,337.079 67.431 L 338.111 67.292 338.111 65.025 L 338.111 62.758 329.642 62.758 L 321.173 62.758 321.173 68.187 M17.590 114.007 L 17.590 151.140 26.162 151.140 L 34.735 151.140 34.794 125.353 L 34.853 99.566 35.363 98.046 C 37.073 92.949,39.556 90.547,43.926 89.761 C 51.651 88.371,55.192 93.907,56.238 109.012 C 56.359 110.755,56.457 120.860,56.458 131.650 L 56.460 151.140 65.141 151.140 L 73.822 151.140 73.890 126.113 L 73.957 101.086 74.454 99.349 C 76.410 92.503,79.669 89.583,85.342 89.595 C 91.309 89.608,94.070 94.573,95.353 107.600 C 95.494 109.023,95.634 118.312,95.701 130.565 L 95.813 151.140 104.374 151.140 L 112.935 151.140 112.864 124.267 L 112.793 97.394 112.301 95.223 C 109.532 83.009,102.615 77.046,91.205 77.038 C 83.165 77.032,77.450 80.879,73.597 88.892 C 73.013 90.104,72.535 91.219,72.533 91.368 C 72.527 91.875,72.143 91.642,71.995 91.042 C 70.531 85.100,64.609 79.344,58.306 77.737 C 48.868 75.332,40.762 78.392,35.871 86.208 L 34.853 87.834 34.795 82.353 L 34.737 76.873 26.163 76.873 L 17.590 76.873 17.590 114.007 M119.653 114.115 L 119.653 151.140 128.339 151.140 L 137.025 151.140 137.025 114.115 L 137.025 77.090 128.339 77.090 L 119.653 77.090 119.653 114.115 M310.197 78.726 C 325.130 82.615,328.926 115.317,315.957 128.359 C 307.285 137.080,295.764 129.914,292.535 113.789 C 288.741 94.847,298.408 75.655,310.197 78.726 M232.785 93.051 C 233.514 96.176,236.916 113.615,236.916 114.224 C 236.916 115.715,232.050 116.521,229.082 115.521 C 219.474 112.284,220.477 96.840,230.715 90.365 C 232.026 89.536,231.939 89.424,232.785 93.051 " stroke="none" fill="#040404" fill-rule="evenodd"></path><path id="path1" d="M220.964 25.089 C 224.383 33.251,224.973 37.302,224.973 52.637 L 224.973 63.776 229.262 63.673 C 246.161 63.268,258.127 70.592,264.190 85.052 C 271.939 103.534,267.833 131.257,256.828 134.757 C 248.040 137.551,241.214 132.384,238.208 120.661 C 237.867 119.330,237.583 118.195,237.578 118.139 C 237.572 118.083,237.006 118.591,236.319 119.268 C 230.632 124.874,218.954 122.189,215.139 114.399 C 210.187 104.286,216.619 92.882,229.800 88.404 C 231.223 87.921,231.258 87.736,230.245 86.026 C 228.676 83.379,226.007 82.884,222.603 84.609 C 220.730 85.558,220.821 85.619,220.893 83.465 C 220.986 80.678,221.893 80.228,227.904 79.984 C 234.626 79.711,238.712 81.555,240.801 85.804 C 242.144 88.536,244.737 99.847,247.440 114.767 C 249.391 125.537,249.978 128.113,250.988 130.341 C 255.164 139.550,258.892 121.043,256.893 101.026 C 254.627 78.330,243.024 65.304,227.144 67.629 C 211.621 69.901,203.020 82.945,203.007 104.235 C 202.999 115.775,206.121 124.037,212.922 130.474 C 217.232 134.554,224.939 138.413,230.163 139.106 L 231.270 139.252 231.270 141.320 L 231.270 143.388 228.133 143.240 L 224.996 143.092 224.912 161.177 C 224.820 181.100,224.869 180.303,223.351 186.294 C 221.253 194.570,215.403 204.762,210.558 208.582 L 209.881 209.116 255.700 209.114 C 293.901 209.112,301.899 209.061,303.800 208.806 C 326.306 205.783,343.893 188.215,346.684 165.968 C 347.252 161.435,347.084 67.278,346.502 64.278 C 342.091 41.542,324.995 25.455,302.669 23.030 C 301.268 22.878,287.044 22.801,260.283 22.801 L 220.005 22.801 220.964 25.089 M338.111 65.007 L 338.111 67.473 336.790 67.611 C 332.246 68.086,327.686 70.956,326.079 74.353 C 325.306 75.987,325.314 76.013,327.090 77.326 C 340.107 86.955,344.517 105.892,337.229 120.857 C 330.446 134.784,315.393 142.277,300.884 138.948 C 299.800 138.700,298.669 138.451,298.369 138.395 C 297.832 138.295,297.782 138.416,295.274 145.748 C 292.522 153.796,292.563 153.635,293.065 154.352 L 293.405 154.837 294.314 154.098 C 300.022 149.455,319.471 139.674,325.263 138.535 C 332.265 137.157,337.463 142.596,337.829 151.683 C 338.307 163.520,330.555 174.179,318.246 178.610 C 316.240 179.332,312.987 180.174,312.850 180.006 C 312.617 179.722,305.321 165.507,305.323 165.343 C 305.325 165.235,306.131 164.715,307.115 164.188 C 316.103 159.370,321.835 155.201,321.173 153.963 C 320.572 152.840,319.380 153.375,311.360 158.369 C 302.338 163.987,292.743 169.497,292.481 169.210 C 292.402 169.125,290.955 166.120,289.265 162.532 L 286.192 156.009 290.327 146.487 C 292.602 141.250,294.463 136.931,294.463 136.890 C 294.463 136.848,293.852 136.506,293.105 136.130 C 276.764 127.892,270.096 106.652,278.457 89.468 C 285.914 74.143,304.863 66.567,319.517 73.051 C 320.218 73.362,320.829 73.616,320.874 73.616 C 320.919 73.616,320.955 71.124,320.955 68.078 L 320.955 62.541 329.533 62.541 L 338.111 62.541 338.111 65.007 M304.983 78.903 C 290.538 83.617,286.988 115.422,299.489 128.124 C 312.204 141.043,327.785 119.970,322.904 96.457 C 320.382 84.310,312.394 76.485,304.983 78.903 M230.275 90.792 C 221.169 97.098,219.754 110.970,227.816 114.911 C 230.751 116.346,235.349 116.176,236.671 114.583 C 236.871 114.342,233.427 95.746,232.582 92.508 C 232.442 91.971,232.232 91.164,232.116 90.717 C 231.854 89.706,231.842 89.707,230.275 90.792 M201.820 132.854 C 202.088 133.292,205.081 135.783,205.894 136.244 C 206.826 136.773,206.655 136.588,205.155 135.446 C 204.493 134.941,203.433 134.088,202.800 133.550 C 202.167 133.013,201.726 132.700,201.820 132.854 " stroke="none" fill="#f36c64" fill-rule="evenodd"></path><path id="path2" d="M35.613 9.363 C 22.676 10.843,11.791 23.566,9.662 39.696 C 9.257 42.764,9.165 174.832,9.565 178.073 C 11.540 194.050,21.391 206.350,34.172 208.800 C 35.739 209.101,40.855 209.136,79.370 209.113 C 127.733 209.085,123.548 208.956,126.634 210.568 C 130.783 212.737,133.355 215.942,140.714 228.122 C 149.632 242.880,154.454 248.332,163.094 253.427 L 164.214 254.087 163.780 253.373 C 154.996 238.929,152.235 224.764,156.726 217.183 C 160.733 210.420,165.169 208.862,179.840 209.065 C 186.392 209.155,189.108 209.116,190.372 208.914 C 203.237 206.852,213.517 194.374,215.515 178.393 C 215.819 175.958,215.859 173.201,215.806 158.340 L 215.744 141.111 213.572 140.251 C 206.315 137.378,201.141 133.204,197.040 126.912 C 185.223 108.783,190.497 81.995,208.226 70.101 C 210.386 68.652,214.976 66.239,215.581 66.234 C 216.018 66.231,215.964 43.440,215.518 40.022 C 213.349 23.376,202.627 10.840,189.287 9.353 C 186.734 9.068,38.104 9.078,35.613 9.363 M180.614 39.507 C 184.840 40.550,188.976 43.376,190.529 46.282 L 190.938 47.048 188.803 52.967 L 186.669 58.886 185.039 57.076 C 176.490 47.585,171.283 46.581,170.179 54.211 L 169.923 55.979 161.164 63.185 C 156.346 67.149,152.365 70.353,152.317 70.305 C 152.269 70.257,152.329 69.150,152.451 67.845 C 154.420 46.759,165.367 35.743,180.614 39.507 M131.901 46.683 C 140.569 48.900,143.406 57.994,137.216 63.724 C 131.260 69.239,120.468 67.527,117.151 60.542 C 113.310 52.455,122.116 44.181,131.901 46.683 M170.033 69.598 L 170.033 76.873 177.767 76.873 L 185.501 76.873 185.372 77.362 C 185.301 77.630,184.830 79.682,184.326 81.922 L 183.409 85.993 176.721 85.993 L 170.033 85.993 170.033 118.567 L 170.033 151.140 161.129 151.140 L 152.226 151.140 152.226 118.567 L 152.226 85.993 146.339 85.993 L 140.452 85.993 140.567 85.505 C 140.630 85.236,141.097 83.184,141.604 80.945 L 142.527 76.873 147.431 76.869 L 152.334 76.866 161.021 69.605 C 165.798 65.611,169.780 62.339,169.870 62.334 C 169.959 62.328,170.033 65.597,170.033 69.598 M34.962 82.126 L 34.962 87.379 35.735 86.096 C 39.626 79.633,45.259 76.657,53.081 76.932 C 62.112 77.249,68.637 81.720,71.613 89.628 C 72.332 91.541,72.284 91.538,73.021 89.718 C 76.525 81.059,83.352 76.568,92.457 76.932 C 102.322 77.326,109.096 82.781,111.802 92.508 C 113.049 96.989,112.992 95.571,113.076 124.484 L 113.154 151.140 104.368 151.140 L 95.582 151.140 95.486 130.239 C 95.423 116.449,95.304 108.525,95.137 106.949 C 93.802 94.395,91.109 89.783,85.125 89.800 C 79.690 89.815,76.821 92.340,74.769 98.914 L 74.159 100.869 74.100 126.004 L 74.041 151.140 65.154 151.140 L 56.268 151.140 56.182 129.262 C 56.090 105.821,56.065 105.242,54.922 99.967 C 53.151 91.793,49.810 88.818,43.700 89.974 C 39.387 90.790,36.734 93.577,35.409 98.684 C 34.970 100.376,34.962 100.865,34.962 125.774 L 34.962 151.140 26.167 151.140 L 17.372 151.140 17.372 114.007 L 17.372 76.873 26.167 76.873 L 34.962 76.873 34.962 82.126 M137.242 114.007 L 137.242 151.140 128.447 151.140 L 119.653 151.140 119.653 114.007 L 119.653 76.873 128.447 76.873 L 137.242 76.873 137.242 114.007 " stroke="none" fill="#24bbbb" fill-rule="evenodd"></path><path id="path3" d="M174.104 39.030 C 174.612 39.076,175.442 39.076,175.950 39.030 C 176.458 38.984,176.042 38.947,175.027 38.947 C 174.012 38.947,173.597 38.984,174.104 39.030 M224.810 41.585 C 224.813 42.063,224.857 42.233,224.909 41.963 C 224.961 41.693,224.959 41.302,224.905 41.094 C 224.851 40.886,224.808 41.107,224.810 41.585 M9.180 42.997 C 9.180 43.534,9.222 43.754,9.274 43.485 C 9.326 43.217,9.326 42.777,9.274 42.508 C 9.222 42.239,9.180 42.459,9.180 42.997 M215.954 54.397 C 215.954 60.966,215.981 63.685,216.015 60.439 C 216.049 57.193,216.049 51.818,216.015 48.495 C 215.981 45.172,215.954 47.828,215.954 54.397 M187.839 43.282 C 187.839 43.319,188.157 43.637,188.545 43.988 L 189.251 44.625 188.613 43.920 C 188.018 43.262,187.839 43.114,187.839 43.282 M127.639 46.413 C 128.150 46.459,128.931 46.459,129.376 46.412 C 129.821 46.365,129.403 46.328,128.447 46.329 C 127.492 46.329,127.128 46.367,127.639 46.413 M173.453 49.013 C 173.721 49.065,174.161 49.065,174.430 49.013 C 174.699 48.961,174.479 48.919,173.941 48.919 C 173.404 48.919,173.184 48.961,173.453 49.013 M119.099 50.000 L 118.241 50.923 119.164 50.065 C 120.022 49.266,120.187 49.077,120.022 49.077 C 119.987 49.077,119.572 49.492,119.099 50.000 M116.233 56.569 C 116.235 57.047,116.280 57.217,116.332 56.946 C 116.384 56.676,116.382 56.285,116.327 56.078 C 116.273 55.870,116.230 56.091,116.233 56.569 M137.459 63.301 C 136.932 63.838,136.549 64.278,136.609 64.278 C 136.669 64.278,137.149 63.838,137.676 63.301 C 138.204 62.763,138.587 62.324,138.527 62.324 C 138.467 62.324,137.987 62.763,137.459 63.301 M321.006 68.132 L 321.056 73.724 321.118 68.244 L 321.180 62.763 329.700 62.704 L 338.219 62.644 329.587 62.592 L 320.955 62.541 321.006 68.132 M227.090 63.780 C 227.359 63.832,227.799 63.832,228.067 63.780 C 228.336 63.728,228.116 63.686,227.579 63.686 C 227.041 63.686,226.821 63.728,227.090 63.780 M233.388 63.780 C 233.656 63.832,234.096 63.832,234.365 63.780 C 234.634 63.728,234.414 63.686,233.876 63.686 C 233.339 63.686,233.119 63.728,233.388 63.780 M152.493 67.752 C 152.493 68.170,152.538 68.341,152.593 68.132 C 152.647 67.923,152.647 67.581,152.593 67.372 C 152.538 67.163,152.493 67.334,152.493 67.752 M327.904 71.553 C 327.377 72.090,326.994 72.530,327.054 72.530 C 327.114 72.530,327.594 72.090,328.122 71.553 C 328.649 71.015,329.032 70.575,328.972 70.575 C 328.912 70.575,328.432 71.015,327.904 71.553 M305.483 70.946 C 305.752 70.998,306.192 70.998,306.460 70.946 C 306.729 70.894,306.509 70.852,305.972 70.852 C 305.434 70.852,305.214 70.894,305.483 70.946 M309.069 70.948 C 309.399 70.998,309.888 70.997,310.155 70.945 C 310.422 70.894,310.152 70.853,309.555 70.855 C 308.958 70.856,308.739 70.899,309.069 70.948 M254.723 71.721 C 254.723 71.754,255.480 72.511,256.406 73.404 L 258.089 75.027 256.466 73.344 C 254.958 71.781,254.723 71.562,254.723 71.721 M202.709 74.756 L 201.194 76.330 202.769 74.816 C 204.231 73.409,204.442 73.181,204.283 73.181 C 204.250 73.181,203.541 73.890,202.709 74.756 M17.479 114.007 C 17.479 134.490,17.504 142.869,17.535 132.628 C 17.566 122.386,17.566 105.627,17.535 95.385 C 17.504 85.144,17.479 93.523,17.479 114.007 M34.745 82.302 C 34.745 85.328,34.800 87.748,34.868 87.680 C 35.015 87.533,34.993 77.049,34.846 76.902 C 34.790 76.846,34.745 79.276,34.745 82.302 M50.111 77.027 C 50.381 77.078,50.772 77.077,50.980 77.022 C 51.187 76.968,50.966 76.925,50.489 76.928 C 50.011 76.930,49.841 76.975,50.111 77.027 M53.043 77.029 C 53.373 77.079,53.862 77.077,54.129 77.026 C 54.396 76.974,54.126 76.933,53.529 76.935 C 52.932 76.937,52.713 76.979,53.043 77.029 M89.199 77.027 C 89.469 77.078,89.860 77.077,90.068 77.022 C 90.275 76.968,90.054 76.925,89.577 76.928 C 89.099 76.930,88.929 76.975,89.199 77.027 M92.237 77.026 C 92.505 77.078,92.945 77.078,93.214 77.026 C 93.483 76.974,93.263 76.932,92.725 76.932 C 92.188 76.932,91.968 76.974,92.237 77.026 M128.284 77.035 L 137.024 77.095 137.080 114.063 L 137.135 151.031 137.134 114.007 L 137.134 76.982 128.339 76.978 L 119.544 76.974 128.284 77.035 M306.998 78.550 C 307.384 78.598,308.068 78.599,308.519 78.552 C 308.969 78.505,308.654 78.465,307.818 78.464 C 306.982 78.463,306.613 78.502,306.998 78.550 M330.510 80.456 C 331.159 81.113,331.739 81.650,331.798 81.650 C 331.858 81.650,331.376 81.113,330.727 80.456 C 330.079 79.799,329.499 79.262,329.439 79.262 C 329.380 79.262,329.862 79.799,330.510 80.456 M226.873 80.070 C 227.261 80.118,227.896 80.118,228.284 80.070 C 228.673 80.022,228.355 79.983,227.579 79.983 C 226.802 79.983,226.485 80.022,226.873 80.070 M230.565 80.066 C 230.833 80.118,231.273 80.118,231.542 80.066 C 231.811 80.015,231.591 79.972,231.053 79.972 C 230.516 79.972,230.296 80.015,230.565 80.066 M78.057 82.139 L 77.199 83.062 78.122 82.203 C 78.980 81.405,79.144 81.216,78.980 81.216 C 78.945 81.216,78.529 81.631,78.057 82.139 M220.924 83.496 C 220.923 84.571,220.960 85.038,221.006 84.534 C 221.051 84.030,221.052 83.151,221.007 82.580 C 220.962 82.009,220.925 82.421,220.924 83.496 M238.219 82.587 C 238.219 82.624,238.537 82.942,238.925 83.293 L 239.631 83.931 238.993 83.225 C 238.399 82.567,238.219 82.419,238.219 82.587 M224.921 83.758 C 225.191 83.810,225.582 83.808,225.790 83.754 C 225.997 83.700,225.776 83.657,225.299 83.660 C 224.821 83.662,224.651 83.706,224.921 83.758 M45.660 89.624 C 45.990 89.674,46.479 89.672,46.746 89.621 C 47.013 89.569,46.743 89.528,46.145 89.530 C 45.548 89.532,45.330 89.574,45.660 89.624 M84.748 89.624 C 85.078 89.674,85.567 89.672,85.834 89.621 C 86.101 89.569,85.831 89.528,85.233 89.530 C 84.636 89.532,84.418 89.574,84.748 89.624 M38.425 92.454 L 37.676 93.268 38.491 92.520 C 39.249 91.823,39.405 91.640,39.239 91.640 C 39.203 91.640,38.836 92.006,38.425 92.454 M227.460 92.997 L 226.602 93.920 227.524 93.061 C 228.032 92.589,228.447 92.174,228.447 92.138 C 228.447 91.974,228.258 92.138,227.460 92.997 M203.091 98.154 C 203.091 98.572,203.135 98.743,203.190 98.534 C 203.244 98.325,203.244 97.983,203.190 97.774 C 203.135 97.565,203.091 97.736,203.091 98.154 M202.897 101.954 C 202.898 102.910,202.936 103.274,202.982 102.763 C 203.028 102.252,203.028 101.470,202.981 101.026 C 202.934 100.581,202.897 100.999,202.897 101.954 M34.850 125.841 C 34.850 139.815,34.876 145.500,34.908 138.474 C 34.939 131.448,34.939 120.015,34.908 113.067 C 34.876 106.119,34.850 111.868,34.850 125.841 M113.026 125.841 C 113.026 139.815,113.052 145.500,113.084 138.474 C 113.115 131.448,113.115 120.015,113.084 113.067 C 113.052 106.119,113.026 111.868,113.026 125.841 M323.612 101.194 C 323.612 101.612,323.656 101.783,323.711 101.574 C 323.766 101.365,323.766 101.023,323.711 100.814 C 323.656 100.605,323.612 100.776,323.612 101.194 M256.945 101.629 C 256.945 102.047,256.990 102.218,257.044 102.009 C 257.099 101.800,257.099 101.458,257.044 101.249 C 256.990 101.040,256.945 101.211,256.945 101.629 M268.035 102.932 C 268.035 103.588,268.075 103.857,268.125 103.529 C 268.175 103.200,268.175 102.663,268.125 102.334 C 268.075 102.006,268.035 102.275,268.035 102.932 M291.722 105.212 C 291.723 106.645,291.758 107.203,291.801 106.452 C 291.843 105.701,291.843 104.528,291.800 103.846 C 291.757 103.164,291.722 103.779,291.722 105.212 M190.739 104.777 C 190.739 105.852,190.775 106.319,190.821 105.815 C 190.867 105.311,190.867 104.432,190.822 103.861 C 190.777 103.290,190.740 103.702,190.739 104.777 M257.171 104.452 C 257.171 104.989,257.213 105.209,257.265 104.940 C 257.317 104.672,257.317 104.232,257.265 103.963 C 257.213 103.694,257.171 103.914,257.171 104.452 M274.776 105.212 C 274.777 106.167,274.815 106.531,274.861 106.020 C 274.907 105.510,274.906 104.728,274.859 104.283 C 274.813 103.838,274.775 104.256,274.776 105.212 M323.852 105.320 C 323.852 106.216,323.890 106.583,323.937 106.135 C 323.984 105.687,323.984 104.954,323.937 104.506 C 323.890 104.058,323.852 104.425,323.852 105.320 M222.434 105.863 C 222.436 106.580,222.476 106.847,222.524 106.456 C 222.573 106.066,222.572 105.480,222.522 105.154 C 222.473 104.827,222.433 105.147,222.434 105.863 M213.518 105.863 C 213.521 106.341,213.565 106.511,213.617 106.241 C 213.669 105.971,213.667 105.580,213.613 105.372 C 213.558 105.164,213.516 105.385,213.518 105.863 M202.893 106.840 C 202.893 107.617,202.932 107.934,202.980 107.546 C 203.028 107.158,203.028 106.523,202.980 106.135 C 202.932 105.746,202.893 106.064,202.893 106.840 M95.164 107.058 C 95.164 107.476,95.209 107.647,95.264 107.438 C 95.318 107.229,95.318 106.887,95.264 106.678 C 95.209 106.469,95.164 106.640,95.164 107.058 M56.081 108.252 C 56.083 108.730,56.128 108.900,56.180 108.629 C 56.232 108.359,56.230 107.968,56.175 107.761 C 56.121 107.553,56.078 107.774,56.081 108.252 M257.407 109.446 C 257.407 110.581,257.444 111.045,257.489 110.478 C 257.533 109.910,257.533 108.982,257.489 108.415 C 257.444 107.847,257.407 108.312,257.407 109.446 M213.518 108.469 C 213.521 108.947,213.565 109.117,213.617 108.847 C 213.669 108.576,213.667 108.186,213.613 107.978 C 213.558 107.770,213.516 107.991,213.518 108.469 M340.550 108.578 C 340.550 108.996,340.595 109.167,340.649 108.958 C 340.704 108.749,340.704 108.407,340.649 108.198 C 340.595 107.989,340.550 108.160,340.550 108.578 M190.930 109.012 C 190.930 109.430,190.975 109.601,191.029 109.392 C 191.084 109.183,191.084 108.841,191.029 108.632 C 190.975 108.423,190.930 108.594,190.930 109.012 M268.032 109.555 C 268.033 110.152,268.076 110.371,268.125 110.040 C 268.175 109.710,268.174 109.222,268.122 108.955 C 268.071 108.688,268.030 108.958,268.032 109.555 M95.396 110.315 C 95.396 110.972,95.437 111.240,95.487 110.912 C 95.536 110.584,95.536 110.046,95.487 109.718 C 95.437 109.389,95.396 109.658,95.396 110.315 M56.318 112.595 C 56.318 113.550,56.357 113.914,56.402 113.404 C 56.448 112.893,56.448 112.111,56.401 111.666 C 56.354 111.222,56.317 111.640,56.318 112.595 M257.405 116.178 C 257.405 117.193,257.442 117.609,257.488 117.101 C 257.534 116.593,257.534 115.763,257.488 115.255 C 257.442 114.748,257.405 115.163,257.405 116.178 M95.652 133.333 C 95.652 143.187,95.679 147.218,95.711 142.291 C 95.744 137.364,95.744 129.302,95.711 124.376 C 95.679 119.449,95.652 123.480,95.652 133.333 M257.162 120.521 C 257.162 120.939,257.207 121.110,257.262 120.901 C 257.316 120.692,257.316 120.350,257.262 120.141 C 257.207 119.932,257.162 120.103,257.162 120.521 M227.747 122.201 C 228.258 122.246,229.040 122.246,229.485 122.199 C 229.929 122.152,229.511 122.115,228.556 122.116 C 227.600 122.116,227.237 122.155,227.747 122.201 M315.844 128.393 L 314.767 129.533 315.907 128.456 C 316.534 127.863,317.047 127.350,317.047 127.315 C 317.047 127.153,316.846 127.334,315.844 128.393 M212.052 129.859 C 212.640 130.456,213.170 130.945,213.230 130.945 C 213.290 130.945,212.857 130.456,212.269 129.859 C 211.681 129.262,211.151 128.773,211.091 128.773 C 211.032 128.773,211.464 129.262,212.052 129.859 M284.256 129.492 C 284.256 129.530,284.574 129.847,284.962 130.198 L 285.668 130.836 285.030 130.130 C 284.435 129.472,284.256 129.325,284.256 129.492 M200.786 131.652 C 201.250 132.160,201.922 132.812,202.280 133.100 C 202.638 133.388,202.299 132.972,201.526 132.175 C 199.957 130.559,199.485 130.225,200.786 131.652 M243.856 131.868 C 244.756 132.826,244.951 132.999,244.951 132.836 C 244.951 132.801,244.487 132.337,243.920 131.804 L 242.888 130.836 243.856 131.868 M260.586 132.356 C 260.059 132.894,259.676 133.333,259.736 133.333 C 259.796 133.333,260.276 132.894,260.803 132.356 C 261.331 131.819,261.714 131.379,261.654 131.379 C 261.594 131.379,261.114 131.819,260.586 132.356 M307.224 139.788 C 307.615 139.837,308.201 139.836,308.527 139.786 C 308.854 139.736,308.534 139.697,307.818 139.698 C 307.101 139.699,306.834 139.740,307.224 139.788 M215.956 158.306 C 215.956 167.921,215.983 171.854,216.015 167.047 C 216.048 162.239,216.048 154.373,216.015 149.566 C 215.983 144.758,215.956 148.692,215.956 158.306 M227.850 143.261 C 228.179 143.311,228.716 143.311,229.045 143.261 C 229.373 143.211,229.104 143.170,228.447 143.170 C 227.790 143.170,227.522 143.211,227.850 143.261 M337.727 150.706 C 337.727 151.124,337.772 151.295,337.826 151.086 C 337.881 150.877,337.881 150.535,337.826 150.326 C 337.772 150.117,337.727 150.288,337.727 150.706 M337.727 154.615 C 337.727 155.033,337.772 155.204,337.826 154.995 C 337.881 154.786,337.881 154.444,337.826 154.235 C 337.772 154.026,337.727 154.197,337.727 154.615 M330.605 170.521 L 329.967 171.227 330.673 170.589 C 331.331 169.995,331.479 169.815,331.311 169.815 C 331.274 169.815,330.956 170.133,330.605 170.521 M328.868 172.258 L 328.230 172.964 328.936 172.326 C 329.594 171.732,329.742 171.553,329.574 171.553 C 329.536 171.553,329.219 171.870,328.868 172.258 M9.183 175.353 C 9.184 175.950,9.226 176.169,9.276 175.838 C 9.326 175.508,9.325 175.020,9.273 174.753 C 9.222 174.486,9.181 174.756,9.183 175.353 M224.806 176.764 C 224.806 177.182,224.851 177.353,224.905 177.144 C 224.960 176.935,224.960 176.593,224.905 176.384 C 224.851 176.175,224.806 176.346,224.806 176.764 M204.879 201.357 L 203.583 202.714 204.940 201.418 C 205.687 200.705,206.298 200.095,206.298 200.061 C 206.298 199.901,206.083 200.096,204.879 201.357 M211.292 207.709 C 210.765 208.246,210.382 208.686,210.442 208.686 C 210.501 208.686,210.982 208.246,211.509 207.709 C 212.037 207.172,212.419 206.732,212.360 206.732 C 212.300 206.732,211.820 207.172,211.292 207.709 M117.101 209.059 C 117.429 209.109,117.967 209.109,118.295 209.059 C 118.624 209.009,118.355 208.968,117.698 208.968 C 117.041 208.968,116.773 209.009,117.101 209.059 M120.252 209.057 C 120.522 209.109,120.913 209.107,121.121 209.053 C 121.329 208.998,121.107 208.956,120.630 208.958 C 120.152 208.961,119.982 209.005,120.252 209.057 M172.044 209.059 C 172.374 209.109,172.863 209.108,173.130 209.056 C 173.397 209.005,173.127 208.964,172.530 208.965 C 171.933 208.967,171.714 209.009,172.044 209.059 M36.102 209.270 C 36.311 209.325,36.653 209.325,36.862 209.270 C 37.071 209.216,36.900 209.171,36.482 209.171 C 36.064 209.171,35.893 209.216,36.102 209.270 M114.172 209.274 C 114.442 209.326,114.833 209.324,115.041 209.270 C 115.248 209.215,115.027 209.173,114.549 209.175 C 114.072 209.178,113.902 209.222,114.172 209.274 M178.564 209.281 C 179.255 209.324,180.330 209.324,180.953 209.280 C 181.575 209.237,181.010 209.201,179.696 209.202 C 178.382 209.202,177.873 209.238,178.564 209.281 M188.328 209.270 C 188.537 209.325,188.879 209.325,189.088 209.270 C 189.297 209.216,189.126 209.171,188.708 209.171 C 188.290 209.171,188.119 209.216,188.328 209.270 M159.053 214.169 L 158.415 214.875 159.121 214.237 C 159.509 213.887,159.826 213.569,159.826 213.532 C 159.826 213.364,159.647 213.512,159.053 214.169 M150.923 243.499 C 150.923 243.536,151.240 243.854,151.629 244.205 L 152.334 244.843 151.697 244.137 C 151.102 243.479,150.923 243.331,150.923 243.499 M154.615 247.191 C 154.615 247.228,154.932 247.546,155.320 247.896 L 156.026 248.534 155.388 247.828 C 154.794 247.171,154.615 247.023,154.615 247.191 " stroke="none" fill="#627d7e" fill-rule="evenodd"></path><path id="path4" d="M20.080 17.210 L 18.784 18.567 20.141 17.271 C 21.402 16.067,21.598 15.852,21.437 15.852 C 21.404 15.852,20.793 16.463,20.080 17.210 M204.777 17.047 C 205.183 17.465,205.563 17.807,205.623 17.807 C 205.682 17.807,205.400 17.465,204.995 17.047 C 204.589 16.629,204.209 16.287,204.149 16.287 C 204.090 16.287,204.372 16.629,204.777 17.047 M162.093 43.702 L 161.455 44.408 162.161 43.770 C 162.549 43.420,162.866 43.102,162.866 43.065 C 162.866 42.897,162.687 43.045,162.093 43.702 M9.228 109.121 C 9.228 145.071,9.253 159.810,9.283 141.874 C 9.314 123.939,9.314 94.525,9.283 76.511 C 9.253 58.496,9.228 73.170,9.228 109.121 M137.568 49.946 C 138.034 50.423,138.465 50.814,138.525 50.814 C 138.584 50.814,138.252 50.423,137.785 49.946 C 137.319 49.468,136.888 49.077,136.828 49.077 C 136.769 49.077,137.101 49.468,137.568 49.946 M180.890 52.837 C 180.890 52.874,181.208 53.192,181.596 53.542 L 182.302 54.180 181.664 53.474 C 181.070 52.817,180.890 52.669,180.890 52.837 M183.931 55.917 C 184.336 56.336,184.716 56.678,184.776 56.678 C 184.835 56.678,184.553 56.336,184.148 55.917 C 183.743 55.499,183.362 55.157,183.302 55.157 C 183.243 55.157,183.525 55.499,183.931 55.917 M169.762 67.155 C 169.865 76.178,169.939 77.001,169.986 69.653 C 170.012 65.622,169.959 62.323,169.870 62.323 C 169.780 62.323,169.732 64.498,169.762 67.155 M119.001 63.301 C 119.406 63.719,119.787 64.061,119.846 64.061 C 119.906 64.061,119.623 63.719,119.218 63.301 C 118.813 62.883,118.433 62.541,118.373 62.541 C 118.313 62.541,118.596 62.883,119.001 63.301 M127.742 67.039 C 128.070 67.089,128.607 67.089,128.936 67.039 C 129.264 66.990,128.996 66.949,128.339 66.949 C 127.682 66.949,127.413 66.990,127.742 67.039 M152.255 69.761 C 152.225 70.372,152.511 70.557,152.789 70.108 C 152.882 69.958,152.849 69.916,152.709 70.002 C 152.574 70.086,152.434 69.939,152.380 69.656 C 152.298 69.230,152.281 69.244,152.255 69.761 M106.080 82.519 C 106.669 83.116,107.199 83.605,107.258 83.605 C 107.318 83.605,106.886 83.116,106.298 82.519 C 105.709 81.922,105.179 81.433,105.119 81.433 C 105.060 81.433,105.492 81.922,106.080 82.519 M152.332 118.567 C 152.332 136.542,152.357 143.895,152.389 134.908 C 152.420 125.920,152.420 111.213,152.389 102.226 C 152.357 93.238,152.332 100.592,152.332 118.567 M169.921 118.567 C 169.921 136.542,169.947 143.895,169.978 134.908 C 170.010 125.920,170.010 111.213,169.978 102.226 C 169.947 93.238,169.921 100.592,169.921 118.567 M78.271 92.128 L 77.633 92.834 78.339 92.196 C 78.997 91.602,79.144 91.422,78.977 91.422 C 78.939 91.422,78.622 91.740,78.271 92.128 M73.938 126.927 C 73.938 140.304,73.964 145.744,73.996 139.017 C 74.027 132.290,74.027 121.345,73.996 114.696 C 73.964 108.046,73.938 113.550,73.938 126.927 M95.386 112.161 C 95.388 112.638,95.433 112.808,95.485 112.538 C 95.537 112.268,95.535 111.877,95.480 111.670 C 95.426 111.462,95.384 111.683,95.386 112.161 M56.347 132.682 C 56.347 142.894,56.374 147.071,56.406 141.965 C 56.438 136.859,56.438 128.504,56.406 123.398 C 56.374 118.293,56.347 122.470,56.347 132.682 M19.544 200.719 C 19.544 200.757,19.862 201.074,20.250 201.425 L 20.955 202.063 20.318 201.357 C 19.723 200.699,19.544 200.552,19.544 200.719 M173.999 209.059 C 174.329 209.109,174.817 209.108,175.084 209.056 C 175.352 209.005,175.081 208.964,174.484 208.965 C 173.887 208.967,173.669 209.009,173.999 209.059 M56.172 209.283 C 66.702 209.315,83.999 209.315,94.608 209.283 C 105.218 209.252,96.602 209.227,75.461 209.227 C 54.321 209.227,45.641 209.252,56.172 209.283 M183.442 209.282 C 184.308 209.323,185.725 209.323,186.591 209.282 C 187.457 209.241,186.748 209.207,185.016 209.207 C 183.284 209.207,182.576 209.241,183.442 209.282 M130.718 213.735 C 131.251 214.302,131.715 214.767,131.750 214.767 C 131.913 214.767,131.741 214.572,130.782 213.672 L 129.750 212.704 130.718 213.735 M154.465 225.950 C 154.466 226.667,154.506 226.934,154.555 226.543 C 154.603 226.153,154.602 225.567,154.553 225.240 C 154.503 224.914,154.463 225.233,154.465 225.950 M153.312 245.928 C 153.960 246.585,154.540 247.123,154.600 247.123 C 154.659 247.123,154.178 246.585,153.529 245.928 C 152.880 245.271,152.300 244.734,152.241 244.734 C 152.181 244.734,152.663 245.271,153.312 245.928 " stroke="none" fill="#549ca4" fill-rule="evenodd"></path></g></svg>